inDegrees=no
num_controls=7
num_derivatives=13
num_iterations=86
num_multipliers=7
num_parameters=0
num_slacks=7
num_states=26
objective=0.436420
objective_accelerations=0.067265
objective_balance=0.003919
objective_effort=0.027429
objective_height=0.332433
objective_ligament=0.005374
solver_duration=1227.419199
status=Solve_Succeeded
success=true
DataType=double
version=3
OpenSimVersion=4.5
endheader
time	/jointset/ground_pelvis/pelvis_tilt/value	/jointset/ground_pelvis/pelvis_tx/value	/jointset/ground_pelvis/pelvis_ty/value	/jointset/hip_l/hip_flexion_l/value	/jointset/hip_l/hip_adduction_l/value	/jointset/hip_l/hip_rotation_l/value	/jointset/back/lumbar_extension/value	/jointset/patellofemoral_l/patellar_flexion_l/value	/jointset/knee_l/knee_flexion_l/value	/jointset/knee_l/knee_adduction_l/value	/jointset/knee_l/knee_rotation_l/value	/jointset/ankle_l/ankle_angle_l/value	/jointset/subtalar_l/subtalar_angle_l/value	/jointset/ground_pelvis/pelvis_tilt/speed	/jointset/ground_pelvis/pelvis_tx/speed	/jointset/ground_pelvis/pelvis_ty/speed	/jointset/hip_l/hip_flexion_l/speed	/jointset/hip_l/hip_adduction_l/speed	/jointset/hip_l/hip_rotation_l/speed	/jointset/back/lumbar_extension/speed	/jointset/patellofemoral_l/patellar_flexion_l/speed	/jointset/knee_l/knee_flexion_l/speed	/jointset/knee_l/knee_adduction_l/speed	/jointset/knee_l/knee_rotation_l/speed	/jointset/ankle_l/ankle_angle_l/speed	/jointset/subtalar_l/subtalar_angle_l/speed	/forceset/tau_hip_flexion_l	/forceset/tau_hip_adduction_l	/forceset/tau_hip_rotation_l	/forceset/tau_knee_flexion_l	/forceset/tau_ankle_angle_l	/forceset/tau_subtalar_angle_l	/forceset/tau_lumbar_extension	lambda_cid13_p0	lambda_cid13_p1	lambda_cid13_p2	lambda_cid13_p3	lambda_cid13_p4	lambda_cid13_p5	lambda_cid14_p0	/jointset/ground_pelvis/pelvis_tilt/accel	/jointset/ground_pelvis/pelvis_tx/accel	/jointset/ground_pelvis/pelvis_ty/accel	/jointset/hip_l/hip_flexion_l/accel	/jointset/hip_l/hip_adduction_l/accel	/jointset/hip_l/hip_rotation_l/accel	/jointset/back/lumbar_extension/accel	/jointset/patellofemoral_l/patellar_flexion_l/accel	/jointset/knee_l/knee_flexion_l/accel	/jointset/knee_l/knee_adduction_l/accel	/jointset/knee_l/knee_rotation_l/accel	/jointset/ankle_l/ankle_angle_l/accel	/jointset/subtalar_l/subtalar_angle_l/accel	gamma_cid13_p0	gamma_cid13_p1	gamma_cid13_p2	gamma_cid13_p3	gamma_cid13_p4	gamma_cid13_p5	gamma_cid14_p0
1	-0.6151419262577409	-0.1014335056544773	0.4902260870370564	2.133486162589474	-0.4567798402536146	0.07614958217300505	-0.2617930960634032	1.576501599616804	1.576501599617119	-0.03302510548397585	-0.1745294198429685	0.2055067909404461	-0.006062532174287906	-0.01670949514703963	0.01042951950599567	0.00429774967639366	-0.006480865919980513	-0.002528767940851205	0.003833638588422045	-2.949794306557569e-05	0.0004733294408078958	0.0004733294408079056	-0.005782012246918276	-6.349287616506259e-05	0.02367232812117537	0.01064856383160976	-0.3819620910384124	-0.02192853971642679	0.002346534007570621	-0.3114482287087269	0.04243271607115739	0.03054207074975008	0.3160547971502769	-27.67606792332295	-8.363748775704074	0.9349055820593984	12.20508714556413	-663.7544997615038	-47.64654628950166	-0.02920529435419456	1.404662883186216	0.07855542052978985	2.419619849585996	-7.918932900688073	-0.3121575733166304	-2.579672845666661	-0.02378788205194683	-5.948775128087032	-5.948775128087256	-0.8743414809744017	-0.05438021921106051	-0.2020129686265265	-0.4749960979516056	6.053576351836818e-09	2.28871880866476e-08	-1.574191469201077e-08	1.401654906642554e-09	-1.889627550712319e-09	3.088164769322996e-08	2.245917254545084e-09
1.01	-0.6152398153454834	-0.1013253398392832	0.4903899066094836	2.133026645826548	-0.4568193484314177	0.07605854295674279	-0.2617934630040846	1.576208915264633	1.576208915264632	-0.03312443750888835	-0.174530535604938	0.2057335799807217	-0.005977933730683392	-0.002864675563461313	0.01120823817464828	0.02846141985266271	-0.08541087671097999	-0.005355882409150718	-0.02202679261105052	-4.327980156663441e-05	-0.05900594830702068	-0.05900594830701809	-0.01407783070521397	-0.0001374450442116028	0.02167761836964932	0.006287468888543967	-0.3818496021781831	-0.02178708855254882	0.002346774458030684	-0.3113590273577712	0.04233725692746564	0.03055431290689641	0.3159805188027011	-27.69372601677673	-8.370413657268482	0.9410393732785439	12.10488681545036	-663.6213853188184	-47.6621018318755	-0.02921690980184892	1.374936622819811	0.07821848923063913	2.414026249197617	-7.878295804094115	-0.265437952739814	-2.58703105138578	0.009918221010003524	-5.946863933762283	-5.946863933761763	-0.8062230569031628	0.01943491925510669	-0.1993788791333546	-0.4142180031475439	-1.344012131538363e-09	1.383803103198657e-08	1.032534492166557e-08	-3.931525923600217e-09	-1.293342687510303e-08	1.089727266147226e-07	-1.200196785967047e-08
1.02	-0.6151991472120146	-0.1012092491575631	0.4907952200131835	2.131778176828553	-0.4568866176677346	0.07570933886962566	-0.2617939494515987	1.575321566167857	1.575321566167542	-0.0333065319241146	-0.1745317233616086	0.2059401861433384	-0.005936456598642152	0.01100194909516453	0.0120144928111939	0.05259651593093859	-0.1642713129335101	-0.008080979643578946	-0.04779933558245172	-5.339930969946037e-05	-0.1184596194801102	-0.1184596194801039	-0.02233449030934972	-7.789181799565617e-05	0.01963575258941505	0.002024301518939173	-0.3817371133179577	-0.02164563738867114	0.002347014908481788	-0.3112698260068151	0.04224179778377498	0.03056655506404309	0.3159062404551212	-27.71404920377118	-8.375754016658245	0.9459825425003053	12.01966311361387	-663.5264260797668	-47.64652084587065	-0.02922110849318255	1.409023898195717	0.08406261410839141	2.413905029987364	-7.905017986994199	-0.2917541265423655	-2.562095200052385	-0.02305541197829332	-5.943653813139222	-5.943653813139216	-0.8665097101424094	-0.02767914035854886	-0.2114441743681645	-0.455410583259393	-1.227872889465132e-08	-1.783919023534422e-09	3.159517434757262e-08	-1.125244264678974e-08	-2.657401334806619e-08	1.964597939890061e-07	-2.945671995415683e-08
1.03	-0.6150195858108405	-0.1010848782894824	0.4914416587286839	2.129741590356085	-0.4569807669267458	0.07510273708389051	-0.2617945240987611	1.573839906848095	1.573839906847815	-0.03357104461961315	-0.1745320452661268	0.2061259493541741	-0.00593740473549096	0.02492468819906588	0.01287214367531645	0.0766782721609096	-0.243020028495263	-0.0107447666805187	-0.07351525098486	-6.039288067358394e-05	-0.1778586013328675	-0.1778586013328613	-0.03056748037378449	-1.962873477340336e-06	0.01749048493713335	-0.002224542932211774	-0.3813299658906014	-0.02140681427939913	0.002330750456990485	-0.311138215224703	0.04232998893889398	0.0306440950296619	0.3156524326738736	-27.65712508980757	-8.429879470759479	0.9665853388599454	11.80976047741181	-663.1860937886545	-47.68918066633859	-0.0292427218661926	1.386046406742256	0.08848198990035934	2.403359537219416	-7.85591214247924	-0.2530734599504705	-2.575500243714147	0.01064925668579599	-5.935964405596623	-5.93596440559665	-0.8016314432198554	0.02292807509810241	-0.220031936308276	-0.4112165522233974	-2.32495388034759e-08	-1.747293839539075e-08	5.281605040421668e-08	-1.859364238929506e-08	-4.024109764907603e-08	2.840427387964814e-07	-4.694419518109496e-08
1.04	-0.6147003675205759	-0.1009515577792933	0.4923285247300276	2.126918293967658	-0.4571014305496623	0.0742391440374609	-0.2617951345643648	1.571764668902954	1.571764668902709	-0.0339178747734776	-0.1745320680485606	0.2062894671133572	-0.005981160352087287	0.03893332691316415	0.0138044212328708	0.1006819730995755	-0.3216132961255536	-0.01338385242468944	-0.09919758772243131	-6.056299793638826e-05	-0.2371753445557308	-0.2371753445557244	-0.03879798198325218	-1.806739931520913e-05	0.01518666225884783	-0.006537194430580226	-0.3809228184632454	-0.02116799117011493	0.002314486005503805	-0.3110066044425901	0.04241818009401674	0.03072163499529835	0.3153986248926251	-27.60300839020426	-8.482655769186829	0.9859938884396489	11.61554454476665	-662.8856622150662	-47.70140117168899	-0.02925692186345095	1.426203820235101	0.09898795279475203	2.398293971726351	-7.873928400701721	-0.2868138679885546	-2.555379467084984	-0.02169072123602058	-5.927206087160432	-5.927206087160355	-0.8660120191489887	-0.04608583442976932	-0.2431551795689254	-0.4681719927028805	-3.07609702760945e-08	-2.625137069361029e-08	8.131055151727896e-08	-2.254750231901956e-08	-5.088255891508763e-08	3.59671403439048e-07	-6.083014080772019e-08
1.05	-0.6142405412961598	-0.1008084746762514	0.4934549573654295	2.123310005071127	-0.4572481233953873	0.07311908485208497	-0.2617957270437407	1.569096774722635	1.569096774722508	-0.03434685687990825	-0.1745324471402673	0.2064290542642855	-0.006068117503228234	0.0530533823533349	0.01483104823689521	0.1245836589434616	-0.4000012523553988	-0.01592455119799193	-0.1247856686699679	-5.624012076880894e-05	-0.2963806100022269	-0.29638061000224	-0.04698537861045186	-4.193126591926146e-05	0.0126950349136997	-0.0108373012786174	-0.3802040913809377	-0.02078244279345155	0.002284849774529447	-0.3108437291326578	0.04271278051158577	0.03085469360753438	0.3149466844382334	-27.46441973430118	-8.580992391593934	1.020270781410813	11.29183216489144	-662.3355634438335	-47.76837893899167	-0.0292916720693017	1.408116955710876	0.1073220854350769	2.382959242693091	-7.814754781276749	-0.233176035561278	-2.556277008067085	0.01174770569663091	-5.913739487696132	-5.913739487699103	-0.7931804782260962	0.02187331879590776	-0.2575308904543999	-0.4083968554548574	-3.816429617258167e-08	-3.481384714577872e-08	1.100323534133543e-07	-2.639550787959467e-08	-6.142946946125556e-08	4.349264968264614e-07	-7.460353863433568e-08
1.06	-0.613638872407381	-0.1006545609009237	0.4948197775296649	2.118919131502868	-0.4574193188595573	0.07174399393733973	-0.2617962255116448	1.56583751734499	1.565837517344982	-0.03485732835135396	-0.1745325828742747	0.2065426522660692	-0.006197569087769625	0.06730185978561873	0.01597055569005686	0.1483594788662789	-0.4781302304712783	-0.0182843761137034	-0.1502039335966673	-4.176070346138203e-05	-0.3554479840208005	-0.3554479840208332	-0.05509585498647659	3.060413034218138e-05	0.009988832429886053	-0.01503608111068321	-0.3794853642986343	-0.02039689441678402	0.002255213543554451	-0.3106808538227246	0.04300738092915718	0.03098775221977705	0.3144947439838371	-27.32890916107208	-8.67795477442918	1.053374903188729	10.98496804548396	-661.8286121271581	-47.80624480120589	-0.02931938670455526	1.451888218657719	0.1215640426221978	2.373120787512586	-7.822132777908555	-0.250639096470323	-2.52141626291751	-0.01965941320804314	-5.89962780157593	-5.899627801575863	-0.8506279689139843	-0.02680598185662383	-0.2860702073020305	-0.4479065895085751	-4.491570475009798e-08	-4.13113813871145e-08	1.426846923079814e-07	-2.836925490255751e-08	-7.098265325037392e-08	5.066543424170505e-07	-8.744264307056319e-08
